<?xml version="1.0" encoding="utf-8"?>
<!-- Generator: Adobe Illustrator 25.2.3, SVG Export Plug-In . SVG Version: 6.00 Build 0)  -->
<svg version="1.1" id="Layer_1" xmlns="http://www.w3.org/2000/svg" xmlns:xlink="http://www.w3.org/1999/xlink" x="0px" y="0px"
	 viewBox="0 0 709.8 842" style="enable-background:new 0 0 709.8 842;" xml:space="preserve">
<style type="text/css">
	.st0{fill:#FFFFFF;stroke:#000000;stroke-miterlimit:10;}
	.st1{fill:none;}
</style>
<path class="st0" d="M25.6,439c0,0-4,10-3,16s4.7,9.6-0.2,16.3c0,0-1,4.5,1.6,5.1c0,0-5.4,2.6-6.4,3.6s0,3.5,0,3.5s-4,2.5-9,11.5
	c0,0-2,7,2,6c0,0-7,7-4,8c0,0-7,4-6,8s2,4,2,4c0.5,2.1,0.2,4.2-1,6c-2,3,4,5,4,5s1,1,0,4s5.4,6,11.7,0c0,0,3.3-3,6.3,4c0,0,1,3-3,6
	c0,0-1,2,3,4c0,0,1,16-1,21c0,0-4,18,1,14c0,0,10-9,9,5c0,0,6,5,10-7c0,0,3-14,9-3c0,0,0,21,11,14c0,0-2,8,4,12c0,0-12,3-9,16
	c0,0,6,1,7,11c0,0,0,2,9,2c0.1,4.5,1.1,8.9,3,13c0,0,1,2-5,7c0,0-2,3,1,5c0,0-6,4,1,9c0,0,2,0,5,8c0,0,7,2,8,7c0,0-5,11-14,10
	c0,0-5-1-1,15c1.1,4.8,0.4,9.7-2,14c0.8,9.1-3.4,17.9-11,23c0,0,4,6,2,18c0,0,3,5-6,8c0,0-11,5,12,15c0,0-1,13,13-2c0,0,3,20,17-6
	c0,0,2,3,3,3s2-2,2-2s1,0,3,2s2-4,2-4l1.8,2.3c0.9,1,3.1,1.8,9.3,0.8c0,0,4,2,5-9c0,0,15-11,10,0c0,0-1,2,4,4c0,0-3,6,4,6
	c0,0-4,13,4,9c0,0-1,13,9,11c0,0,13,12,16,22s6,16,14,11c2.3,0.2,4.4,1.3,6,3c3,3,1-12,1-12s3-4,10,13c0.7,1.7,1.4,2.5,1.8,2.4
	c3.6-0.5-1.8-59.9-1.3-59.9s3.8,32.9,4.5,32.9c0.6,0-0.9-18.6,3.5-34.9c4.2-15.7,9.4-13.1,22.5-40.5c0.9-1.8,13-30,13-30s5-17,24-14
	s16-1,16-1s7-2,19,0s45-6,48-17s-1-16,16-15c0,0-3,7-7,9s5,5.6,5,5.6s0,1.3,2,4.8s6-2.5,6,5.5c0,0,7,0,7,5s4,1,7,1s-6,4,9,4
	c0,0,2,12.8,0,18.4s8,0,8,0s11,5.9,0,11.8c0,0-1,11.8,10,8.8v9h9v-3.8c0,0-1-6.2,15,2.8c0,0,8,6,9,9s10-8,15,6s11,14,23,8
	s22-10,22-17c0,0,21-10,43,8c0,0-15,15,13,6c0,0,9,1,8,13c0,0,5,2,7-1c0,0,5,8,8,1c0,0,13,20,10,5c0,0,13-1,18-9
	c2.7-4.6,7.7-7.3,13-7c0,0,13-7,12-15c0,0,20,4,22,0s-3-15-2-16s11-8,16-9s-7-5,8-6c0,0-2-25-3-31s-10-6-10-6s-4-6-1-6s6,4,6,4
	s14,2,15,1s15-3,7-12s-7-14-19-23c0,0,9-7,11-12c0,0,18,7,4-21c0,0,4-3,4-6s-9-16-12-16s-13,4-15-5s-8-13-4-22s-15-4-17-5s-4-1-3-5
	c0,0-16-9-5-17c0,0,30-24-12-43c0,0,3-4-7-12c0,0,5-6-10-22c0,0,4-21-13-11c0,0,1.7-10-22.1-11c0,0-4.9-3-0.9-6c0,0,3-15-18-7
	c0,0-2-4-11-2s-3-27-3-27s24,7,16-23c0,0,5-12,37-17c0,0,6,14,15,8c0,0,11,2,8-14c0,0,10-9,11-16c0,0,12,5,16-14c0,0,6-2,5-13
	c0,0,35-12,28-39c0,0,2-7,7-10s-2-17-7-11c0,0-6-6-14-8c0,0,0-5-9-12c0,0,6-10,1-20c3.7-2,5.9-5.8,6-10c0,0,24-9,13-22s-12-12-2-25
	s22-35,31-39s-6-57-29-51c0,0-4,3-3-13c0,0,3-4-13,1s-8-3-16-9s-8-8-9-14s-20.1,0-20.1,0s-4.9,7-7.9,6s-4-3-5-2
	c-0.9,0.8-1.9,1.5-3,2c0,0,0-4-2-4s-7,2-10-3c0,0-15,5-13-19c0,0,2-7-16,3c0,0-4,7-3,10s-10,1-10,1s-12,9-14,4s-4-5,2-9c0,0-1-6,1-6
	s2-14-8-6c0,0-1.5,1.5-4.5,0.5s-8-9-18,6l-5-7c0,0-6,11-8,11s-8-1-12,10c0,0-2,5-3-7s-14-9-14-9s-4-9-14,4s-7,1-14,18c0,0-2-6-10,12
	c0,0-6-4-4,10c0,0,4,2-6,0c0,0-4,0-10.5,6s-0.5,7-0.5,7s-5,9-6,11s4,3,4,3s-3,2-3,3s-1,13-13,13s-3,5-3,5s-6,4-4,11s-25,7-25,7
	s-3.5-4.1,0.8-6.6s1.2-9.4,1.2-9.4s4-1,2-7s-3,9-7-13c0,0-11-12-12-7c0,0,0-2-14-8c0,0-8,13-16,11c0,0-4-2-2-15c0,0-4-3-4,11
	c0,0-3,2-12-1c0,0-2,3,0,10s-5,13-5,13s-1,13-12,7s-6,13-2,12s1,6,1,6s5,4,5,6s9,0,9,0s0,5,5,5c0,0,0,6,4,5c0,0,1,4-3,4s4,1-6,13
	c0,0,1,5-7,10c-1.1,1.1-1.1,2.8-0.1,3.9l0.1,0.1c2,2-11,2-13,21c0,0-23,4-12,8c0,0,9,4,2,19s-5,14-5,14s-13,7-1,20v4
	c-6.5,1.6-12.2,5.5-16,11c0,0,2,17-3,34c0,0,1,3,13,5v9c0,0,3,3-1,6s7,11,19,10s-1,14-1,14s-2,5,7,5c0,0,2,6,7,5c0,0,2,9,5,12
	s-2,6-2,6s1,9,7,13c0,0,4,16-15,12c0,0-4,10-3,14s-2,14-10,15c0,0-2,0-2-5s-15-2-16,3c0,0-3-3-11-4v4c0,0-4,7-8,7s-5-2-5-2l-3,2h-9
	c0,0-3,5-7,4s-3-9-3-9s-4-10-7,0c0,0-6,3-7,1s1,3,1,3s-3,6-8,3c-2.9-1.7-5.3-4.1-7-7c0,0-7,3-7,8s-27,6-31-1s-7,17-7,17s-3,14-7-2
	c0,0-5-11-14-6c0,0-4,1-4-5c0,0-5,5-8,5s-11,0-14-6c0,0-5,5-10-5c0,0-9,4-6-1c0,0-9-3-13,3c0,0-5-3-10,8L25.6,439z"/>
<path class="st1" d="M192.6,768"/>
</svg>
