<svg xmlns="http://www.w3.org/2000/svg" viewBox="0 0 20 23.75"><defs><style>.cls-1{fill:#545454;}</style></defs><g id="Layer_2" data-name="Layer 2"><g id="Layer_1-2" data-name="Layer 1"><path class="cls-1" d="M10,0C4.47,0,0,.63,0,5V17.5a3.72,3.72,0,0,0,1.25,2.77V22.5A1.25,1.25,0,0,0,2.5,23.75H3.75A1.25,1.25,0,0,0,5,22.5V21.25H15V22.5a1.25,1.25,0,0,0,1.25,1.25H17.5a1.25,1.25,0,0,0,1.25-1.25V20.27A3.72,3.72,0,0,0,20,17.5V5C20,.63,15.53,0,10,0Zm7.07,3.74H2.93C3.61,3.08,5.39,2.5,10,2.5S16.39,3.08,17.07,3.74Zm.43,2.5V10H2.5V6.24Zm-.43,12.17-.36.34H3.29l-.36-.34a1.17,1.17,0,0,1-.43-.91v-5h15v5A1.17,1.17,0,0,1,17.07,18.41Z"/><circle class="cls-1" cx="5.63" cy="15.62" r="1.87"/><circle class="cls-1" cx="14.38" cy="15.62" r="1.87"/></g></g></svg>