<?xml version="1.0" encoding="utf-8"?>
<!-- Generator: Adobe Illustrator 25.2.3, SVG Export Plug-In . SVG Version: 6.00 Build 0)  -->
<svg version="1.1" id="Layer_1" xmlns="http://www.w3.org/2000/svg" xmlns:xlink="http://www.w3.org/1999/xlink" x="0px" y="0px"
	 viewBox="0 0 24 24" style="enable-background:new 0 0 24 24;" xml:space="preserve">
<style type="text/css">
	.st0{fill:none;}
	.st1{fill:#0E3873;}
</style>
<path class="st0" d="M0,0h24v24H0V0z"/>
<path class="st1" d="M18.3,5.7L18.3,5.7c-0.4-0.4-1-0.4-1.4,0l-4.2,4.2c-0.4,0.4-1,0.4-1.4,0L7.1,5.7c-0.4-0.4-1-0.4-1.4,0l0,0
	c-0.4,0.4-0.4,1,0,1.4l4.2,4.2c0.4,0.4,0.4,1,0,1.4l-4.2,4.2c-0.4,0.4-0.4,1,0,1.4h0c0.4,0.4,1,0.4,1.4,0l4.2-4.2
	c0.4-0.4,1-0.4,1.4,0l4.2,4.2c0.4,0.4,1,0.4,1.4,0l0,0c0.4-0.4,0.4-1,0-1.4l-4.2-4.2c-0.4-0.4-0.4-1,0-1.4l4.2-4.2
	C18.7,6.7,18.7,6.1,18.3,5.7z"/>
</svg>
