<svg xmlns="http://www.w3.org/2000/svg" viewBox="0 0 40 31.67"><defs><style>.cls-1{fill:#545454;}.cls-2{fill:#fff;}.cls-3{fill:#1c96d4;}</style></defs><g id="Layer_2" data-name="Layer 2"><g id="Layer_1-2" data-name="Layer 1"><rect class="cls-1" x="0.25" y="4.39" width="29.7" height="6.47" rx="1.25"/><path class="cls-2" d="M28.7,4.64a1,1,0,0,1,1,1v4a1,1,0,0,1-1,1H1.5a1,1,0,0,1-1-1v-4a1,1,0,0,1,1-1H28.7m0-.5H1.5A1.5,1.5,0,0,0,0,5.64v4a1.5,1.5,0,0,0,1.5,1.5H28.7a1.5,1.5,0,0,0,1.5-1.5v-4a1.5,1.5,0,0,0-1.5-1.5Z"/><rect class="cls-1" x="0.25" y="10.25" width="29.7" height="6.47" rx="1.25"/><path class="cls-2" d="M28.7,10.5a1,1,0,0,1,1,1v4a1,1,0,0,1-1,1H1.5a1,1,0,0,1-1-1v-4a1,1,0,0,1,1-1H28.7m0-.5H1.5A1.5,1.5,0,0,0,0,11.5v4A1.5,1.5,0,0,0,1.5,17H28.7a1.5,1.5,0,0,0,1.5-1.5v-4A1.5,1.5,0,0,0,28.7,10Z"/><rect class="cls-1" x="0.25" y="16.08" width="29.7" height="6.47" rx="1.25"/><path class="cls-2" d="M28.7,16.33a1,1,0,0,1,1,1v4a1,1,0,0,1-1,1H1.5a1,1,0,0,1-1-1v-4a1,1,0,0,1,1-1H28.7m0-.5H1.5A1.5,1.5,0,0,0,0,17.33v4a1.5,1.5,0,0,0,1.5,1.5H28.7a1.5,1.5,0,0,0,1.5-1.5v-4a1.5,1.5,0,0,0-1.5-1.5Z"/><rect class="cls-1" x="0.25" y="21.92" width="29.7" height="6.47" rx="1.25"/><path class="cls-2" d="M28.7,22.17a1,1,0,0,1,1,1v4a1,1,0,0,1-1,1H1.5a1,1,0,0,1-1-1v-4a1,1,0,0,1,1-1H28.7m0-.5H1.5A1.5,1.5,0,0,0,0,23.17v4a1.5,1.5,0,0,0,1.5,1.5H28.7a1.5,1.5,0,0,0,1.5-1.5v-4a1.5,1.5,0,0,0-1.5-1.5Z"/><rect class="cls-1" x="8.78" y="11.86" width="29.7" height="6.47" rx="1.25"/><path class="cls-2" d="M37.22,12.11a1,1,0,0,1,1,1v4a1,1,0,0,1-1,1H10a1,1,0,0,1-1-1v-4a1,1,0,0,1,1-1H37.22m0-.5H10a1.5,1.5,0,0,0-1.5,1.5v4a1.5,1.5,0,0,0,1.5,1.5H37.22a1.5,1.5,0,0,0,1.5-1.5v-4a1.5,1.5,0,0,0-1.5-1.5Z"/><rect class="cls-1" x="8.78" y="17.7" width="29.7" height="6.47" rx="1.25"/><path class="cls-2" d="M37.22,18a1,1,0,0,1,1,1v4a1,1,0,0,1-1,1H10a1,1,0,0,1-1-1V19a1,1,0,0,1,1-1H37.22m0-.5H10A1.5,1.5,0,0,0,8.53,19v4a1.5,1.5,0,0,0,1.5,1.5H37.22a1.5,1.5,0,0,0,1.5-1.5V19a1.5,1.5,0,0,0-1.5-1.5Z"/><rect class="cls-1" x="8.78" y="23.53" width="29.7" height="6.47" rx="1.25"/><path class="cls-2" d="M37.22,23.78a1,1,0,0,1,1,1v4a1,1,0,0,1-1,1H10a1,1,0,0,1-1-1v-4a1,1,0,0,1,1-1H37.22m0-.5H10a1.5,1.5,0,0,0-1.5,1.5v4a1.5,1.5,0,0,0,1.5,1.5H37.22a1.5,1.5,0,0,0,1.5-1.5v-4a1.5,1.5,0,0,0-1.5-1.5Z"/><polygon class="cls-3" points="28.39 31.67 40 20.05 16.77 20.05 28.39 31.67"/><rect class="cls-3" x="16.75" y="5.81" width="23.23" height="11.61" transform="translate(39.98 -16.75) rotate(90)"/><polygon class="cls-2" points="25.44 16.99 32.3 6.67 31.3 6.67 24.43 16.99 25.44 16.99"/><path class="cls-2" d="M34.19,11.57a2.57,2.57,0,0,0-1.94-.77,2.83,2.83,0,0,0-2.82,3.13,2.7,2.7,0,0,0,2.73,3,2.65,2.65,0,0,0,2-.91Zm-2,4.54c-1,0-1.54-1-1.52-2.24s.54-2.26,1.52-2.26,1.51,1,1.51,2.23S33.24,16.11,32.19,16.11Z"/><path class="cls-2" d="M22.58,12a2.61,2.61,0,0,0,2,.84c1.51,0,2.8-1.05,2.8-3.15,0-1.9-1.08-3-2.71-3a2.71,2.71,0,0,0-2.05.91Zm2-4.47c1.09,0,1.5,1,1.5,2.22S25.62,12,24.58,12,23,11,23.07,9.74,23.59,7.49,24.58,7.49Z"/></g></g></svg>