<?xml version="1.0" encoding="utf-8"?>
<!-- Generator: Adobe Illustrator 25.2.3, SVG Export Plug-In . SVG Version: 6.00 Build 0)  -->
<svg version="1.1" id="Layer_1" xmlns="http://www.w3.org/2000/svg" xmlns:xlink="http://www.w3.org/1999/xlink" x="0px" y="0px"
	 viewBox="0 0 30.4 30.4" style="enable-background:new 0 0 30.4 30.4;" xml:space="preserve">
<style type="text/css">
	.st0{fill:none;stroke:#0E3873;stroke-width:2;stroke-miterlimit:10;}
</style>
<g id="Layer_2_1_">
	<g id="Layer_1-2">
		<path class="st0" d="M27.7,8.5C25.2,3.9,20.4,1,15.2,1"/>
		<path class="st0" d="M2.7,8.5C0.3,13,0.5,18.4,3.2,22.7"/>
		<path class="st0" d="M2.7,8.5C5.1,3.9,9.9,1,15.2,1"/>
		<path class="st0" d="M15.2,29.4c-4.9,0-9.4-2.5-12-6.6"/>
		<path class="st0" d="M15.2,29.4c4.9,0,9.4-2.5,12-6.6"/>
		<path class="st0" d="M27.2,22.7c2.7-4.3,2.9-9.7,0.5-14.2"/>
		<path class="st0" d="M8.7,9.5c-0.4,1.9-0.6,3.8-0.6,5.7c0,2.2,0.3,4.5,0.8,6.7"/>
		<path class="st0" d="M15.2,29.4c2.7,0,5.1-3,6.3-7.5"/>
		<path class="st0" d="M8.9,21.8c1.2,4.5,3.5,7.5,6.3,7.5"/>
		<path class="st0" d="M21.4,21.8c0.6-2.2,0.8-4.4,0.8-6.7c0-1.9-0.2-3.8-0.6-5.7"/>
		<path class="st0" d="M15.2,1c2.9,0,5.4,3.5,6.5,8.5"/>
		<path class="st0" d="M8.7,9.5c1.1-5,3.6-8.5,6.5-8.5"/>
		<path class="st0" d="M8.7,9.5c2.2,0.2,4.3,0.3,6.5,0.3c2.2,0,4.3-0.1,6.5-0.3"/>
		<path class="st0" d="M8.7,9.5c-2-0.2-4-0.5-6-1"/>
		<path class="st0" d="M27.7,8.5c-2,0.5-4,0.8-6,1"/>
		<path class="st0" d="M27.2,22.7c-1.9-0.4-3.8-0.7-5.7-0.9"/>
		<path class="st0" d="M8.9,21.8c2-0.2,4.1-0.3,6.3-0.3s4.3,0.1,6.3,0.3"/>
		<path class="st0" d="M8.9,21.8C7,22,5.1,22.3,3.2,22.7"/>
	</g>
</g>
</svg>
