<svg xmlns="http://www.w3.org/2000/svg" viewBox="0 0 38.34 36.65"><defs><style>.cls-1{fill:#545454;}.cls-2{fill:#278dc5;}.cls-3{fill:#fff;}</style></defs><g id="Layer_2" data-name="Layer 2"><g id="Layer_1-2" data-name="Layer 1"><path class="cls-1" d="M18.71,33.08a.85.85,0,0,1-1.19,0,.84.84,0,0,1,0-1.18l5.65-5.65L20.82,23.9l-5.65,5.65A.83.83,0,0,1,14,28.37l5.65-5.65-2.35-2.35L11.64,26a.84.84,0,0,1-1.18,0,.86.86,0,0,1,0-1.19l5.65-5.65-2.37-2.35L8.09,22.48a.84.84,0,0,1-1.18,0,.85.85,0,0,1,0-1.18l7.3-7.3,3.11,3.1a4.27,4.27,0,0,0,5.9,0,4.15,4.15,0,0,0,0-5.9l-3.1-3.1.47-.47a3.34,3.34,0,0,1,4.72,0l7.06,7.07a3.34,3.34,0,0,1,0,4.72Zm16-11.3a6.68,6.68,0,0,0,0-9.43L27.66,5.28a6.69,6.69,0,0,0-9.44,0l-.46.47-.47-.47a6.68,6.68,0,0,0-9.43,0L2,11.18a6.65,6.65,0,0,0-.67,8.65l2.42-2.41a3.34,3.34,0,0,1,.61-3.89l5.9-5.9a3.34,3.34,0,0,1,4.72,0l5.93,5.94a.83.83,0,0,1-1.18,1.18L14.21,9.28,4.54,18.93a4.17,4.17,0,0,0,0,5.9A4.11,4.11,0,0,0,6.91,26a4.07,4.07,0,0,0,3.53,3.53A4.12,4.12,0,0,0,14,33.07a4.06,4.06,0,0,0,1.17,2.36,4.18,4.18,0,0,0,5.9,0Z"/><g id="Layer_2-2" data-name="Layer 2"><g id="Layer_1-2-2" data-name="Layer 1-2"><polygon class="cls-2" points="26.73 31.67 38.34 20.05 15.11 20.05 26.73 31.67"/><rect class="cls-2" x="20.9" width="11.61" height="23.23"/><polygon class="cls-3" points="23.78 16.99 30.64 6.67 29.64 6.67 22.77 16.99 23.78 16.99"/><path class="cls-3" d="M32.53,11.57a2.56,2.56,0,0,0-1.94-.77,2.84,2.84,0,0,0-2.84,2.82,3,3,0,0,0,0,.31,2.69,2.69,0,0,0,2.38,3,2.06,2.06,0,0,0,.35,0,2.64,2.64,0,0,0,2-.91Zm-2,4.54c-1,0-1.54-1-1.52-2.24s.54-2.26,1.52-2.26,1.51,1,1.51,2.23S31.58,16.11,30.53,16.11Z"/><path class="cls-3" d="M20.92,12a2.6,2.6,0,0,0,2,.84c1.51,0,2.8-1.05,2.8-3.15,0-1.9-1.08-3-2.71-3A2.69,2.69,0,0,0,21,7.6Zm2-4.47c1.09,0,1.5,1,1.5,2.22S24,12,22.92,12s-1.58-1-1.51-2.26.52-2.25,1.51-2.25Z"/></g></g></g></g></svg>