<?xml version="1.0" encoding="utf-8"?>
<!-- Generator: Adobe Illustrator 25.2.3, SVG Export Plug-In . SVG Version: 6.00 Build 0)  -->
<svg version="1.1" id="Layer_1" xmlns="http://www.w3.org/2000/svg" xmlns:xlink="http://www.w3.org/1999/xlink" x="0px" y="0px"
	 viewBox="0 0 51.7 39.3" style="enable-background:new 0 0 51.7 39.3;" xml:space="preserve">
<style type="text/css">
	.st0{fill:none;stroke:#0E3873;stroke-width:2;stroke-linecap:round;stroke-linejoin:round;stroke-miterlimit:10;}
	.st1{fill:#0E3873;}
</style>
<g id="Layer_1-2">
	<g id="Layer_2-2">
		<g id="Layer_1-2-2">
			<path class="st0" d="M21.8,7.6c-2.3-5.5-8.7-8-14.2-5.7s-8,8.7-5.7,14.2s8.7,8,14.2,5.7c2.6-1.1,4.6-3.1,5.7-5.7"/>
			<line class="st0" x1="21.8" y1="7.6" x2="45.2" y2="7.6"/>
			<line class="st0" x1="45.2" y1="7.6" x2="50.7" y2="13"/>
			<line class="st0" x1="21.8" y1="16.1" x2="26.5" y2="16.1"/>
			<line class="st0" x1="26.5" y1="16.1" x2="28.4" y2="18"/>
			<line class="st0" x1="28.4" y1="18" x2="30.4" y2="16"/>
			<line class="st0" x1="30.4" y1="16" x2="34.8" y2="16"/>
			<line class="st0" x1="34.8" y1="16.1" x2="36.7" y2="18"/>
			<line class="st0" x1="36.7" y1="18" x2="38.7" y2="16"/>
			<line class="st0" x1="38.7" y1="16" x2="45.2" y2="16"/>
			<line class="st0" x1="50.7" y1="13" x2="45.2" y2="16"/>
			<line class="st0" x1="22.5" y1="12.2" x2="43.9" y2="12.2"/>
			<circle class="st0" cx="11.4" cy="11.8" r="2.8"/>
		</g>
	</g>
	<path class="st1" d="M13,37.4V35h1.7v2.4H19v1.3H8.8v-1.3H13z M18.2,28.4V32h-7v1.4h7.4v1.3h-7.6c-0.4,0-0.8-0.1-1.2-0.3
		c-0.3-0.2-0.4-0.6-0.4-1v-2.6h7.1v-1.2H9.4v-1.3L18.2,28.4z"/>
	<path class="st1" d="M30.9,38.6h-10v-1.4h7.2c0.2-0.6,0.3-1.2,0.4-1.8c0.1-0.7,0.2-1.4,0.1-2.1v-3.5h-7.3v-1.4h9v4.3
		c0,0.8,0,1.6-0.1,2.4c-0.1,0.7-0.3,1.5-0.5,2.2h1.1V38.6z"/>
	<path class="st1" d="M38.6,29.1c0.5,0.6,0.8,1.4,0.8,2.3c0,0.8-0.3,1.6-0.8,2.2c-1.3,1.3-3.5,1.4-4.8,0c0,0,0,0,0,0
		c-0.5-0.6-0.8-1.4-0.8-2.2c0-0.8,0.3-1.6,0.8-2.3C35.1,27.8,37.2,27.8,38.6,29.1z M35.5,38.1h7v1.3h-7.2c-0.4,0-0.8-0.1-1.2-0.3
		c-0.3-0.3-0.4-0.6-0.3-1v-2.4h1.7L35.5,38.1z M35,30c-0.5,0.9-0.5,1.9,0,2.8c0.4,0.6,1.2,0.8,1.8,0.4c0.2-0.1,0.3-0.2,0.4-0.4
		c0.5-0.9,0.5-1.9,0-2.8c-0.4-0.6-1.2-0.8-1.8-0.4C35.2,29.7,35.1,29.8,35,30z M42.4,28.2v8.1h-1.7v-8.1L42.4,28.2z"/>
</g>
</svg>
