<?xml version="1.0" encoding="utf-8"?>
<!-- Generator: Adobe Illustrator 25.2.3, SVG Export Plug-In . SVG Version: 6.00 Build 0)  -->
<svg version="1.1" id="Layer_1" xmlns="http://www.w3.org/2000/svg" xmlns:xlink="http://www.w3.org/1999/xlink" x="0px" y="0px"
	 viewBox="0 0 229.4 28.5" style="enable-background:new 0 0 229.4 28.5;" xml:space="preserve">
<style type="text/css">
	.st0{fill:#0E3873;}
</style>
<polygon class="st0" points="67.3,9.3 15.2,9.3 19.7,0.3 72,0.3 "/>
<polygon class="st0" points="52.1,18.8 0,18.8 4.5,9.9 56.8,9.9 "/>
<polygon class="st0" points="57.9,28.4 5.8,28.4 10.3,19.4 62.6,19.4 "/>
<g>
	<path class="st0" d="M83.3,3.5L75.1,20h8.4l-1.8,3.6H68.5l8.9-17.7c0.2-0.4,0.3-0.9,0.4-1.5l0-0.9H83.3z"/>
	<path class="st0" d="M99.6,15l-1.4,2.9h-8.6c-0.3,0.7-0.5,1.3-0.4,1.8c0.1,0.5,0.5,0.8,1.3,0.8c1.1,0,2-0.6,2.7-1.7h4.3
		c-0.9,1.6-2.2,2.8-3.8,3.8c-1.6,1-3.2,1.5-4.9,1.5c-2.4,0-3.8-0.7-4.2-2.2s0-3.4,1.2-5.8c0.6-1.2,1.3-2.3,2-3.3
		c0.7-1,1.6-1.9,2.5-2.7c0.9-0.8,1.9-1.4,3-1.9c1.1-0.4,2.2-0.7,3.4-0.7c2.2,0,3.4,0.7,3.9,2C101.1,10.9,100.8,12.7,99.6,15z
		 M95,11.2c-0.6,0-1.3,0.3-1.9,0.9c-0.7,0.6-1.2,1.4-1.8,2.5h4C96.4,12.3,96.3,11.2,95,11.2z"/>
	<path class="st0" d="M101.9,11.8l0.6-1.3c0.2-0.4,0.3-0.9,0.4-1.5l0-0.9h3.8l1.2-2.3c0.2-0.4,0.3-0.9,0.4-1.5l0-0.9h5.4l-2.3,4.7
		h3.8l-1.8,3.6h-3.8l-3.9,7.8c-0.1,0.3-0.2,0.4-0.2,0.5s0.1,0.1,0.3,0.2c1.1,0.1,2.3,0,3.6-0.4l-1.8,3.7c-1.2,0.4-2.7,0.5-4.4,0.5
		c-1.6,0-2.6-0.3-2.9-0.8c-0.3-0.5-0.2-1.5,0.5-2.7l4.4-8.7H101.9z"/>
	<path class="st0" d="M122.2,1c1-0.1,1.6,0.1,1.9,0.6c0.3,0.5,0.2,1.2-0.2,2.1c-0.6,1.2-1.6,2.4-3,3.7c-1.4,1.3-2.5,2.1-3.3,2.4
		l-0.9-1c0.5-0.2,1.1-0.7,1.9-1.3c0.8-0.7,1.3-1.2,1.5-1.6c-0.6,0-1-0.2-1.2-0.5c-0.2-0.4-0.2-0.8,0-1.3c0.3-0.7,0.7-1.3,1.3-1.9
		C120.7,1.4,121.4,1.1,122.2,1z"/>
	<path class="st0" d="M136.4,19c-0.7,1.5-1.9,2.7-3.5,3.6c-1.6,0.9-3.3,1.4-5,1.5c-2,0.1-3.3-0.5-4-1.6c-0.7-1.1-0.7-2.6,0-4.3h4.6
		c-0.5,1.5,0,2.1,1.3,2.1c0.5,0,1-0.2,1.5-0.6c0.5-0.3,0.7-0.7,0.7-1.1c0-0.3-0.7-0.7-1.9-1.1c-3.2-1-4.1-2.8-2.7-5.5
		c0.8-1.4,1.9-2.5,3.5-3.3c1.6-0.8,3.3-1.2,5.1-1.1c1.7,0.1,2.9,0.6,3.5,1.6c0.6,1,0.5,2.4-0.3,4.2h-4.7c0.2-0.6,0.3-1.1,0.3-1.5
		c-0.1-0.4-0.3-0.7-0.7-0.7c-0.8-0.1-1.4,0.2-1.9,0.8c-0.4,0.5-0.5,0.9-0.4,1.2c0.1,0.3,0.6,0.6,1.3,0.9c0.6,0.3,1.1,0.5,1.4,0.6
		c0.3,0.1,0.7,0.3,1.1,0.6c0.4,0.2,0.7,0.5,0.9,0.7c0.2,0.2,0.3,0.5,0.4,0.8s0.2,0.6,0.1,1C136.8,18.1,136.6,18.5,136.4,19z"/>
	<path class="st0" d="M148.2,23.5h-4.6l8.9-17.7c0.2-0.4,0.3-0.9,0.4-1.5l0-0.9h5.4l-3.4,6.7l9.2-6.7h5.6l-10.9,7.8l0.9,12.2h-5
		l-0.6-8.8l-2.3,1.6L148.2,23.5z"/>
	<path class="st0" d="M177.7,12.8c-0.2,0.9-0.6,1.9-1.2,3c-0.5,1.1-1.1,2.1-1.8,3c-0.7,0.9-1.5,1.8-2.4,2.6c-0.9,0.8-1.9,1.5-3.1,2
		c-1.1,0.5-2.4,0.7-3.6,0.7c-1,0-1.8-0.2-2.5-0.5c-0.6-0.3-1.1-0.8-1.3-1.3c-0.2-0.5-0.3-1.2-0.3-1.9c0-0.7,0.2-1.5,0.4-2.2
		c0.3-0.8,0.6-1.5,1-2.4c0.4-0.8,0.9-1.6,1.4-2.4c0.5-0.8,1.1-1.5,1.8-2.2c0.7-0.7,1.4-1.4,2.2-1.9c0.8-0.5,1.6-0.9,2.6-1.3
		c1-0.3,2-0.5,3-0.5c1.3,0,2.2,0.2,2.9,0.7c0.7,0.5,1,1.1,1.1,1.9C178,11,177.9,11.9,177.7,12.8z M169.6,19.3
		c0.7-0.7,1.5-1.9,2.3-3.5c0.8-1.6,1.2-2.8,1.3-3.5s-0.3-1.1-1.1-1.1s-1.5,0.4-2.2,1.1c-0.7,0.7-1.5,1.9-2.3,3.5
		c-0.8,1.6-1.2,2.8-1.2,3.5c0,0.7,0.3,1.1,1.1,1.1C168.2,20.4,168.9,20.1,169.6,19.3z"/>
	<path class="st0" d="M179.3,23.5h-4.6l6.5-13c0.2-0.4,0.3-0.9,0.4-1.5l0-0.9h5.4l-0.8,1.7c0.9-0.6,1.9-1.1,3.1-1.5
		c1.2-0.4,2.2-0.7,3.2-0.8l-2.1,4.2c-0.9,0-2,0.4-3.3,0.9c-1.2,0.6-2.4,1.3-3.3,2L179.3,23.5z"/>
	<path class="st0" d="M187.4,19.1c0.5-1,1.2-1.9,2.1-2.7c0.9-0.8,1.8-1.4,2.8-1.9c1-0.5,2.1-0.8,3.1-1.1s2.1-0.4,3.1-0.5
		c0.6-1.3,0.3-1.9-1-1.8c-1.2,0.1-2.1,0.8-2.8,2.2h-4.5c0.9-1.6,2.2-3,3.9-4.1c1.7-1.1,3.5-1.7,5.5-1.7c1.9,0,3.1,0.5,3.7,1.5
		c0.6,1,0.5,2.3-0.3,3.9l-5.3,10.6h-3.9l0.2-0.9c-1,0.7-2.2,1-3.5,1.1c-1.7,0.1-2.9-0.3-3.4-1.1C186.5,21.9,186.6,20.7,187.4,19.1z
		 M192.1,18.8c-0.2,0.5-0.3,0.8-0.2,1.1c0.1,0.2,0.4,0.3,0.8,0.3c0.7,0,1.4-0.2,2-0.6c0.6-0.4,1-0.9,1.3-1.6l0.7-1.5
		c-1,0-1.9,0.2-2.8,0.6C193.2,17.4,192.5,18,192.1,18.8z"/>
	<path class="st0" d="M205.3,23.5h-4.6l6.2-12.3c0.2-0.4,0.3-0.9,0.4-1.5l0-0.9h5.4L205.3,23.5z M209.3,5.1c0.4-0.8,1-1.4,1.7-1.9
		c0.8-0.5,1.6-0.8,2.4-0.8c0.8,0,1.4,0.3,1.6,0.8c0.3,0.5,0.2,1.2-0.2,1.9c-0.4,0.8-1,1.4-1.8,1.9c-0.8,0.5-1.6,0.8-2.4,0.8
		c-0.8,0-1.4-0.3-1.6-0.8C208.9,6.6,208.9,5.9,209.3,5.1z"/>
	<path class="st0" d="M213.1,23.5h-4.7l8.9-17.7c0.2-0.4,0.3-0.9,0.4-1.5l0-0.9h5.5L213.1,23.5z"/>
</g>
</svg>
