<?xml version="1.0" encoding="utf-8"?>
<!-- Generator: Adobe Illustrator 25.2.3, SVG Export Plug-In . SVG Version: 6.00 Build 0)  -->
<svg version="1.1" id="Layer_1" xmlns="http://www.w3.org/2000/svg" xmlns:xlink="http://www.w3.org/1999/xlink" x="0px" y="0px"
	 viewBox="0 0 36.4 38.7" style="enable-background:new 0 0 36.4 38.7;" xml:space="preserve">
<style type="text/css">
	.st0{fill:#545454;}
	.st1{fill:#FFFFFF;stroke:#248DC5;stroke-width:2;stroke-linejoin:round;}
	.st2{fill:none;stroke:#545454;stroke-linecap:round;stroke-linejoin:round;}
	.st3{fill:none;stroke:#248DC5;stroke-width:2;stroke-linecap:round;stroke-linejoin:round;}
	.st4{fill:#FFFFFF;stroke:#248DC5;stroke-width:2;stroke-linecap:round;stroke-linejoin:round;}
</style>
<g id="Layer_2_1_">
	<g id="Layer_1-2">
		<g id="Layer_2-2">
			<g id="Layer_1-2-2">
				<circle class="st0" cx="8.7" cy="24.1" r="2.9"/>
				<circle class="st0" cx="22.2" cy="24.1" r="2.9"/>
				<path class="st0" d="M15.4,0C7.7,0,0,1,0,7.7v18.4c0,3.7,3,6.7,6.8,6.8l-2.9,2.9v1h3.9l3.9-3.9h7.7l3.9,3.9h3.9v-1l-2.9-2.9
					c3.7,0,6.8-3,6.8-6.8V7.7C30.9,1,23.2,0,15.4,0z M15.4,3.9c6.8,0,9.6,0.9,10.8,1.9H4.7C5.9,4.7,8.7,3.9,15.4,3.9z M3.9,9.7h9.7
					v5.8H3.9V9.7z M27,26.1c0,1.6-1.3,2.9-2.9,2.9H6.8c-1.6,0-2.9-1.3-2.9-2.9l0,0v-6.8H27V26.1z M27,15.4h-9.7V9.7H27V15.4z"/>
			</g>
		</g>
		<polygon class="st1" points="35.1,31.5 35.1,20.4 25.4,14.8 15.8,20.4 15.8,31.5 25.4,37.1 		"/>
		<line class="st2" x1="16.6" y1="21.5" x2="26.2" y2="27"/>
		<line class="st3" x1="25.4" y1="25.9" x2="35.1" y2="20.4"/>
		<line class="st3" x1="25.4" y1="37.1" x2="25.4" y2="25.9"/>
		<line class="st3" x1="20.8" y1="17.5" x2="30.2" y2="23.2"/>
		<polygon class="st4" points="27.9,21.7 18.1,16.2 15.8,20.4 25.4,25.9 		"/>
	</g>
</g>
</svg>
