<svg xmlns="http://www.w3.org/2000/svg" viewBox="0 0 31.15 39.84"><defs><style>.cls-1{fill:#545454;}.cls-2{fill:#fff;}.cls-3,.cls-5{fill:none;}.cls-4{fill:#2096d5;}.cls-5{stroke:#2096d5;stroke-linecap:round;stroke-linejoin:round;stroke-width:1.2px;}</style></defs><g id="Layer_2" data-name="Layer 2"><g id="Layer_1-2" data-name="Layer 1"><g id="Layer_2-2" data-name="Layer 2"><g id="Layer_1-2-2" data-name="Layer 1-2"><rect class="cls-1" y="0.6" width="21.78" height="33.4" rx="1.14"/><rect class="cls-2" x="2.18" y="3.11" width="17.43" height="28.74" rx="0.79"/><rect class="cls-2" x="7.26" y="1.96" width="7.26" height="0.73" rx="0.36"/><circle class="cls-1" cx="10.89" cy="4.1" r="0.73"/><path class="cls-3" d="M10.9,8.62h0a.14.14,0,0,0,0-.09A.14.14,0,0,1,10.9,8.62Z"/><path class="cls-4" d="M31.15,9c-.26,1.56-2.27,2.87-4.67,2.87S22,10.57,21.81,9h0c-.25,1.56-2.24,2.88-4.67,2.88S12.65,10.57,12.46,9h0l9.35,30.83Z"/><rect class="cls-4" x="20.81" y="4.2" width="1.87" height="7.56"/><path class="cls-5" d="M26.9,4.51C26.9,2.34,25.75.6,24.32.6s-2.51,1.74-2.51,3.91"/></g></g></g></g></svg>