<?xml version="1.0" encoding="utf-8"?>
<!-- Generator: Adobe Illustrator 25.2.3, SVG Export Plug-In . SVG Version: 6.00 Build 0)  -->
<svg version="1.1" id="Layer_1" xmlns="http://www.w3.org/2000/svg" xmlns:xlink="http://www.w3.org/1999/xlink" x="0px" y="0px"
	 viewBox="0 0 40 40" style="enable-background:new 0 0 40 40;" xml:space="preserve">
<style type="text/css">
	.st0{fill:#248DC5;}
	.st1{fill:#545454;stroke:#FFFFFF;stroke-width:0.25;stroke-miterlimit:10;}
</style>
<g id="Layer_2_1_">
	<g id="Layer_1-2">
		<path class="st0" d="M20.3,9.4c-4.4,0-8.8,0.6-8.8,4.4v10.5c0,2.1,1.7,3.8,3.9,3.9l-1.7,1.1v1.1h13.2v-1.1l-1.6-1.1
			c2.1,0,3.8-1.7,3.9-3.9V13.8C29.1,10,25.1,9.4,20.3,9.4z M20.3,11.6c4.1,0,5.6,0.5,6.3,1.1H14.1C16,11.7,18.2,11.4,20.3,11.6z
			 M13.6,14.9h5.5v3.3h-5.5V14.9z M26.9,24.3c0,0.9-0.7,1.6-1.6,1.6h-9.9c-0.9,0-1.6-0.7-1.7-1.6v-3.9h13.2V24.3z M26.9,18.2h-5.5
			v-3.3h5.5V18.2z"/>
		<circle class="st0" cx="16.4" cy="23.2" r="1.7"/>
		<circle class="st0" cx="24.1" cy="23.2" r="1.7"/>
		<path class="st1" d="M37.3,32.2H35l-0.8-0.8c6.7-7.9,5.8-19.7-2-26.4S12.4-0.9,5.7,7s-5.8,19.7,2,26.4c7,6,17.4,6,24.4,0l0.8,0.8
			v2.3l14.4,14.4l4.3-4.3L37.3,32.2z M20,32.2c-7.2,0-13-5.8-13-13s5.8-13,13-13s13,5.8,13,13c0,0,0,0,0,0.1
			C32.9,26.4,27.2,32.2,20,32.2L20,32.2z"/>
	</g>
</g>
</svg>
