<svg xmlns="http://www.w3.org/2000/svg" viewBox="0 0 38.72 26.23"><defs><style>.cls-1{fill:#545454;}.cls-2{fill:#fff;}.cls-3{fill:#248dc5;stroke:#fff;stroke-miterlimit:10;stroke-width:0.5px;}</style></defs><g id="Layer_2" data-name="Layer 2"><g id="Layer_1-2" data-name="Layer 1"><g id="Layer_1-2-2" data-name="Layer 1-2"><rect class="cls-1" x="0.25" y="0.25" width="29.7" height="6.47" rx="1.25"/><path class="cls-2" d="M28.7.5a1,1,0,0,1,1,1v4a1,1,0,0,1-1,1H1.5a1,1,0,0,1-1-1v-4a1,1,0,0,1,1-1H28.7m0-.5H1.5A1.5,1.5,0,0,0,0,1.5H0v4A1.5,1.5,0,0,0,1.5,7H28.7a1.5,1.5,0,0,0,1.5-1.5v-4A1.5,1.5,0,0,0,28.7,0Z"/><rect class="cls-1" x="0.25" y="6.11" width="29.7" height="6.47" rx="1.25"/><path class="cls-2" d="M28.7,6.36a1,1,0,0,1,1,1v4a1,1,0,0,1-1,1H1.5a1,1,0,0,1-1-1v-4a1,1,0,0,1,1-1H28.7m0-.5H1.5A1.5,1.5,0,0,0,0,7.36v4a1.5,1.5,0,0,0,1.5,1.5H28.7a1.5,1.5,0,0,0,1.5-1.5v-4A1.5,1.5,0,0,0,28.7,5.86Z"/><rect class="cls-1" x="0.25" y="11.94" width="29.7" height="6.47" rx="1.25"/><path class="cls-2" d="M28.7,12.19a1,1,0,0,1,1,1v4a1,1,0,0,1-1,1H1.5a1,1,0,0,1-1-1v-4a1,1,0,0,1,1-1H28.7m0-.5H1.5A1.5,1.5,0,0,0,0,13.19v4a1.5,1.5,0,0,0,1.5,1.5H28.7a1.5,1.5,0,0,0,1.5-1.5v-4A1.5,1.5,0,0,0,28.7,11.69Z"/><rect class="cls-1" x="0.25" y="17.78" width="29.7" height="6.47" rx="1.25"/><path class="cls-2" d="M28.7,18a1,1,0,0,1,1,1v4a1,1,0,0,1-1,1H1.5a1,1,0,0,1-1-1V19a1,1,0,0,1,1-1H28.7m0-.5H1.5A1.5,1.5,0,0,0,0,19v4a1.5,1.5,0,0,0,1.5,1.5H28.7A1.5,1.5,0,0,0,30.2,23V19A1.5,1.5,0,0,0,28.7,17.53Z"/><rect class="cls-1" x="8.78" y="7.72" width="29.7" height="6.47" rx="1.25"/><path class="cls-2" d="M37.22,8a1,1,0,0,1,1,1v4a1,1,0,0,1-1,1H10a1,1,0,0,1-1-1V9a1,1,0,0,1,1-1H37.22m0-.5H10A1.5,1.5,0,0,0,8.5,9v4a1.5,1.5,0,0,0,1.5,1.5H37.22a1.5,1.5,0,0,0,1.5-1.5V9A1.5,1.5,0,0,0,37.22,7.47Z"/><rect class="cls-1" x="8.78" y="13.56" width="29.7" height="6.47" rx="1.25"/><path class="cls-2" d="M37.22,13.86a1,1,0,0,1,1,1v4a1,1,0,0,1-1,1H10a1,1,0,0,1-1-1v-4a1,1,0,0,1,1-1H37.22m0-.5H10a1.5,1.5,0,0,0-1.47,1.5v4a1.5,1.5,0,0,0,1.5,1.5H37.22a1.5,1.5,0,0,0,1.5-1.5v-4A1.5,1.5,0,0,0,37.22,13.36Z"/><rect class="cls-1" x="8.78" y="19.39" width="29.7" height="6.47" rx="1.25"/><path class="cls-2" d="M37.22,19.64a1,1,0,0,1,1,1v4a1,1,0,0,1-1,1H10a1,1,0,0,1-1-1v-4a1,1,0,0,1,1-1H37.22m0-.5H10a1.5,1.5,0,0,0-1.5,1.5v4a1.5,1.5,0,0,0,1.5,1.5H37.22a1.5,1.5,0,0,0,1.5-1.5v-4A1.5,1.5,0,0,0,37.22,19.14Z"/></g><circle class="cls-2" cx="27.87" cy="16.98" r="7.89"/><path class="cls-3" d="M28.37,12h-1.5v6l4.75,2.85.75-1.23-4-2.37ZM33.2,5.79l4.61,3.84-1.28,1.54L31.92,7.33Zm-10.67,0,1.28,1.53L19.2,11.17,17.92,9.63ZM27.87,8a9,9,0,1,0,9,9A9,9,0,0,0,27.87,8Zm0,16a7,7,0,1,1,7-7A7,7,0,0,1,27.87,24Z"/></g></g></svg>