<?xml version="1.0" encoding="utf-8"?>
<!-- Generator: Adobe Illustrator 25.2.3, SVG Export Plug-In . SVG Version: 6.00 Build 0)  -->
<svg version="1.1" id="Layer_1" xmlns="http://www.w3.org/2000/svg" xmlns:xlink="http://www.w3.org/1999/xlink" x="0px" y="0px"
	 viewBox="0 0 40 40" style="enable-background:new 0 0 40 40;" xml:space="preserve">
<style type="text/css">
	.st0{fill:none;}
	.st1{fill:none;stroke:#00693F;stroke-miterlimit:10;}
	.st2{enable-background:new    ;}
	.st3{fill:#00693F;}
</style>
<path class="st0" d="M8.4,8h23.2C31.8,8,32,8.2,32,8.4v23.2c0,0.2-0.2,0.4-0.4,0.4H8.4C8.2,32,8,31.8,8,31.6V8.4C8,8.2,8.2,8,8.4,8z
	"/>
<path class="st1" d="M18,22.5V17h4v5.9h5v-8h2c0.3,0,0.5-0.4,0.2-0.7l-8.9-8c-0.2-0.2-0.4-0.2-0.5,0l-8.9,8
	c-0.2,0.2-0.1,0.7,0.2,0.7h2v8h5L18,22.5z"/>
<g class="st2">
	<path class="st3" d="M9.9,33.7v-7.2h1.4l1.7,5.1c0.2,0.5,0.3,0.8,0.3,1.1c0.1-0.3,0.2-0.6,0.4-1.1l1.7-5h1.3v7.2h-0.9v-6l-2.1,6
		h-0.9l-2.1-6.1v6.1H9.9z"/>
	<path class="st3" d="M21.5,33c-0.3,0.3-0.6,0.5-0.9,0.6c-0.3,0.1-0.6,0.2-1,0.2c-0.6,0-1-0.1-1.3-0.4c-0.3-0.3-0.5-0.6-0.5-1.1
		c0-0.3,0.1-0.5,0.2-0.7c0.1-0.2,0.3-0.4,0.5-0.5s0.4-0.2,0.6-0.3c0.2,0,0.4-0.1,0.8-0.1c0.7-0.1,1.2-0.2,1.6-0.3c0-0.1,0-0.2,0-0.2
		c0-0.4-0.1-0.6-0.2-0.8c-0.2-0.2-0.6-0.3-1-0.3c-0.4,0-0.7,0.1-0.9,0.2c-0.2,0.1-0.3,0.4-0.4,0.8L18,30c0.1-0.4,0.2-0.7,0.4-0.9
		c0.2-0.2,0.4-0.4,0.8-0.5c0.3-0.1,0.7-0.2,1.2-0.2c0.4,0,0.8,0.1,1.1,0.2c0.3,0.1,0.5,0.2,0.6,0.4c0.1,0.2,0.2,0.4,0.3,0.6
		c0,0.1,0,0.4,0,0.8v1.2c0,0.8,0,1.3,0.1,1.5c0,0.2,0.1,0.4,0.2,0.6h-0.9C21.6,33.5,21.5,33.3,21.5,33z M21.4,31.1
		c-0.3,0.1-0.8,0.2-1.4,0.3c-0.4,0.1-0.6,0.1-0.8,0.2s-0.3,0.2-0.3,0.3c-0.1,0.1-0.1,0.3-0.1,0.4c0,0.2,0.1,0.4,0.3,0.6
		s0.4,0.2,0.8,0.2c0.3,0,0.6-0.1,0.9-0.2c0.3-0.1,0.5-0.4,0.6-0.6c0.1-0.2,0.1-0.5,0.1-0.9V31.1z"/>
	<path class="st3" d="M23.7,27.5v-1h0.9v1H23.7z M23.7,33.7v-5.2h0.9v5.2H23.7z"/>
	<path class="st3" d="M25.9,33.7v-5.2h0.8v0.7c0.4-0.6,0.9-0.9,1.7-0.9c0.3,0,0.6,0.1,0.9,0.2c0.3,0.1,0.5,0.3,0.6,0.4
		s0.2,0.4,0.3,0.6c0,0.2,0,0.4,0,0.9v3.2h-0.9v-3.2c0-0.4,0-0.6-0.1-0.8c-0.1-0.2-0.2-0.3-0.4-0.4c-0.2-0.1-0.4-0.2-0.6-0.2
		c-0.4,0-0.7,0.1-1,0.4c-0.3,0.2-0.4,0.7-0.4,1.4v2.8H25.9z"/>
</g>
</svg>
