<?xml version="1.0" encoding="utf-8"?>
<!-- Generator: Adobe Illustrator 25.2.3, SVG Export Plug-In . SVG Version: 6.00 Build 0)  -->
<svg version="1.1" id="Layer_1" xmlns="http://www.w3.org/2000/svg" xmlns:xlink="http://www.w3.org/1999/xlink" x="0px" y="0px"
	 viewBox="0 0 441.1 657.1" style="enable-background:new 0 0 441.1 657.1;" xml:space="preserve">
<style type="text/css">
	.st0{fill:#FFFFFF;stroke:#000000;stroke-linecap:round;stroke-linejoin:round;}
</style>
<g id="Layer_2_1_">
	<g id="Layer_1-2">
		<path class="st0" d="M146.2,610.5c0,0,9-11,14-14c0,0,7,5,11-2s10-21,10-24c0,0,2.9-2,3.5,0s4.5-12,4.5-12s5-3,8-17c0,0,3,0,7-8
			c0,0,9,9,19-20c0,0,4-6,7-6s8-2,10-5c1.5-2.4,4.2-3.9,7-4c0,0,14-18,15-21s12-11,17,9c-1.6,4.6-4.8,8.5-9,11c0,0-3,4-3,13
			c0,0-4,9-6,10s-8,7-11,15c0,0,0,2-5,2c0,0-8,12-10,13s-4,7-2,9s0,9,0,9s-2,25,5,20s3,13,3,13s4,5,9,6c0,0,4,6,1,11c0,0,5,0,0,4
			s-16,5-18,6s2,1.4-20.5,10.2c0,0-4.5,2.8-5.5,5.8s-7,5-7,5l-2,2c0,0-9,0-14,1s-7,3-7,3s-6,4-4-3s-10-8-10-8s-2-9,6-12
			c0,0,0-10-6-1c0,0-1,3-3-1c0,0-7-1-8,1s-4,0,0-4c0,0,1-1-1-2c0,0,2-5.7-5-5.4C146.2,620.1,150.2,610.5,146.2,610.5z"/>
		<path class="st0" d="M24.2,399.5c0,0,10,0,2,4c0,0-3,1-3,10c0,0-3.8,2,1.1,3.5l-0.1,5.5c0,0,4-6,7-7s1,1,1,1c1.9,0.5,4-0.3,5-2
			c2-3,7,1,7,1s4,11,4,2s2,0,2,0s1,3,6,2s7-6,7-6l2.2-2.5l-2.2-3.5c0,0,3,2,1-4c0,0,5-3,9-1c0,0-3,4-1,6c0,0,7-6,3-7
			c0,0-3.5-6.9,1.2-8c0,0,1.8-2,1.8-3c0,0,1,4,2,4s-4,6,0,12c0,0,2,1,4-5c0,0,3,4,3-1c0,0,3-3,3,4c0,0-1,6,9-8c0,0,1,0,2,3s5,1,5,1
			s5,0,5,4c0,0,3,5,3-7c0,0,2.3-9,1.7,9c0,0,6.3,0,4.3-4c0,0-2-3,3-1c0,0,1-2,6-3c0,0-1,4,1,3c1.9-1,3.9-1.6,6-2c1,0,1-2-2-3
			s6-2,7-1s-3,2-3,2s-2,4,0,4s2.3,0.1,3.2-1.5s2.8,0.5,2.8,0.5s3-1,3-5c0,0,6,1,0,4l5-1l4,2l3,1c1.8-1.2,3.9-1.9,6-2c3,0,13,2,19,5
			c0,0,3,0-1,4s4,0,4,0c3.6,2.4,6.6,5.4,9,9c0,0,3-1,3-3s4-10,3,1s0,10,2,11s7,6,9-2c0,0,8,3,10,7l13.5,11c0,0,11.5,1,17.5,11
			c0,0,9,8,20,4c0,0,1-4,13,8c0,0,7-1,24-7c0,0,1-2,6,1c2.8-2,5.8-3.7,9-5c5-2,9-10,9-10s6,2,3-4c0,0,2-2,8-2c0,0,4-1,4-5s12,1,11,4
			s-1,8,13,2c0,0,4-3-2-9s9-5,9-5s21-6,19,6s5,3,5,3c-0.5,1.6-0.9,3.3-1,5c0,2,3-4,3-5s8-15,8-2c0,0-3,9,16-9c1.2-1.8,1.2-4.2,0-6
			c0,0,8,0,0-9s-6-7-6-10s0-9-4-18c0,0-3-1,3-5c0,0,0-7-2-10c0,0,5,1,5-9c0,0,1-8,4-10s-2-4-3.5,0c0,0-2.5-8-8.5-5c0,0-2-2,4-3
			c0,0,5-2,6-4c0,0,3,2,9,1s-1-5-3-4s-5-5-5-5s-6,0-8,2s-1-2.8-1-2.8s-7-3.3-9-0.3s-2-4-2-4s3-4-10-2c-1-2.2-2.8-4-5-5c0,0,1-5,5-7
			c0,0,0-1-2-4s1-9,1-9s1-8-6-7c0,0-7-4,3-8l1-2c1.9,0.1,3.6,0.8,5,2c2,2,2,0,2,0v-4l2-3v-2c0,0,5-4,9-4v-5c0,0,6-3-4-4v-6
			c0,0,4-1-1-4s1-3,1-3s5-3-7-2c0,0-4,0-5-3s-4.7,0-4.7,0s-4.3-4-1.3-6s-18,3-18,3s-9-1,1-7c0,0,0-6-1-6H372c0,0-2.9-3-5.9-2
			c0,0-11.8,0.6-11.9-0.2s-2.1,5.2-2.1,5.2s-4,3-7,2c0,0-4-7-7-5c0,0-2-9,4-10s-12-14-13-12s-5-3,0-4s-2-13-2-13s-10-4-17-1
			c0,0,1-4-3,1c0,0-6-1-7,6c0,0-4,2-5,4s-1-4-1-4s-2,1-3-7c-2.4-0.6-4.9-0.2-7,1c-4,2-10-5-10-5s-1-5,0-5s-3-4-18-7s-17-12-13-15
			s-2-3-2-3s-1-5.9,1-6.5s-1-5.5-1-5.5s2-5,4-5s-9-5,5-15c0,0,7,0,9,6c0,0,7-1,6,5c0,0,7,3,12-3s4-7,4-7l6,1c0,0,2-4,1-14
			s-2-16-5-16s2-4,2-4s3-6-3-6c0,0,6-4,5-8s-5-8-4-10s-11-1-17,3s-9,5-9,6s-2,3-3,1s-9,2-9,2s-5-1.9-3-5c0,0-5-2-1-7c0,0-1-5-5-5
			s-2-2-2-2s-7-4-7-7s-6-1-5-8s0-11,0-11s5-4,0-11c0,0,0-22-8-4c0,0-5,1-2-4c0,0,1-2-6-1c0,0-1-4-7-3c0,0-2,0-2-3c0,0,0,2-5,2v2
			c0,0-1-1-5,1c0,0-4,1-2-7c0,0-2,5-4,6s-3-2-3-2s0,5-5,3c0,0-2-6-8-2c0,0,3,3,0,5s-7-2-6-5s-9,1-10,4s-2-4-2-4s-4-1-5,5s-14,2-15-1
			s-15,1-15,1s-8-12-17-3c0,0-14,2-19,11c0,0-6,3-9-1s-3,6-3,6s-10,4-13,1s-9,6-8,6s9,4,12,7s-1,8-1,8s1,7,7,5s-3,20-3,20s7,3,5,10
			c0,0,5,10,2,13c0,0,2,0,2,10c0,0,7,4,9,3c0,0,7,2,4,11c0,0,4-4-1,14c0,0,0,5,12,6c0,0-4,3,2,6c0,0-8,10,1,20c0,0-3,5,1,14
			c0,0-10,5-12,7s3,2-7,7v3c-3.9-1.1-7.9,0.6-10,4c0,0-3-5-12-5c0,0-1,7-7,8s3,22,10,15c0,0,1,8-2,10c0,0,6,5,0,8c0,0-9-6-14,1
			s-6,19-5,20c0,0,3,4-12,7c0,0-4,9-1,18c0,0-3-3-4,1c0,0-5-2-5,1h-4c0,0,0,5-3,6s-7,11,5,13c0,0-12,9-4,9c0,0-2,4,0,5
			c0,0-12,8-6,13l1-1c0,0,5,2,5,6l3,2v2l3,3c0,0,0,3-2,4s-5,2-6,6c0,0-6-1-1,4c0,0-9,12-2,14c0,0,2,2,0,7s5-3,9,0c0,0,1,8,7,7
			c0,0,0,4,3,4S24.2,399.5,24.2,399.5z"/>
	</g>
</g>
</svg>
