<?xml version="1.0" encoding="utf-8"?>
<!-- Generator: Adobe Illustrator 25.2.3, SVG Export Plug-In . SVG Version: 6.00 Build 0)  -->
<svg version="1.1" id="Layer_1" xmlns="http://www.w3.org/2000/svg" xmlns:xlink="http://www.w3.org/1999/xlink" x="0px" y="0px"
	 viewBox="0 0 40 40" style="enable-background:new 0 0 40 40;" xml:space="preserve">
<style type="text/css">
	.st0{fill:#1497BB;}
	.st1{enable-background:new    ;}
</style>
<g>
	<g>
		<path class="st0" d="M34.4,13c0.1,0,0.1,0.1,0.1,0.1v13.8c0,0.1,0,0.1-0.1,0.1H19.6c-0.1,0-0.1,0-0.1-0.1V13.1
			c0-0.1,0-0.1,0.1-0.1H34.4 M34.4,12.5H19.6c-0.3,0-0.6,0.3-0.6,0.6v13.8c0,0.3,0.3,0.6,0.6,0.6h14.8c0.3,0,0.6-0.3,0.6-0.6V13.1
			C35,12.8,34.7,12.5,34.4,12.5L34.4,12.5z"/>
	</g>
	<g>
		<path class="st0" d="M9.6,19.9C9.9,20,10.3,20,10.9,20c0.5,0,0.9,0,1.2-0.1s0.4-0.2,0.4-0.4c0-0.4-0.5-0.5-1.6-0.5
			c-1.1,0-1.6,0.2-1.6,0.5C9.3,19.7,9.4,19.8,9.6,19.9z"/>
		<path class="st0" d="M5,13.1v13.8c0,0.3,0.3,0.6,0.6,0.6h13.8c0.3,0,0.6-0.3,0.6-0.6V13.1c0-0.3-0.3-0.6-0.6-0.6H5.6
			C5.3,12.5,5,12.8,5,13.1z M9,15.5c0.1-0.2,0.3-0.3,0.5-0.3h2.6c0.3,0,0.4,0.1,0.5,0.3s0.1,0.4,0,0.6c-0.1,0.2-0.3,0.3-0.5,0.3H9.5
			c-0.2,0-0.4-0.1-0.5-0.3C8.9,15.9,8.9,15.7,9,15.5z M7.7,17.4c-0.1-0.2-0.1-0.4,0-0.6c0.1-0.2,0.3-0.3,0.5-0.3h5.2
			c0.3,0,0.4,0.1,0.5,0.3s0.1,0.4,0,0.6s-0.3,0.3-0.5,0.3H8.3C8,17.7,7.8,17.6,7.7,17.4z M8.7,18.3c0.5-0.3,1.2-0.5,2.1-0.5
			s1.6,0.2,2.1,0.5s0.7,0.7,0.7,1.2s-0.2,0.9-0.7,1.2s-1.2,0.5-2.1,0.5S9.2,21,8.7,20.7C8.2,20.4,8,20,8,19.5S8.2,18.6,8.7,18.3z
			 M16,23.5c-0.1,0.2-0.3,0.3-0.5,0.3H9.1c-0.7,0-1.1-0.3-1.1-1v-1.3c0-0.3,0.1-0.5,0.3-0.6c0.2-0.1,0.4-0.1,0.6,0s0.3,0.3,0.3,0.6
			v1.1c0,0,0,0,0.1,0h6c0.3,0,0.4,0.1,0.5,0.3C16.1,23.1,16.1,23.3,16,23.5z M16.8,19.1c-0.1,0.2-0.3,0.3-0.5,0.3h-0.5v1.8
			c0,0.3-0.1,0.5-0.3,0.6c-0.2,0.1-0.4,0.1-0.6,0s-0.3-0.3-0.3-0.5v-5.6c0-0.2,0.1-0.3,0.2-0.5c0.1-0.1,0.3-0.2,0.4-0.2
			s0.3,0.1,0.4,0.2c0.1,0.1,0.2,0.3,0.2,0.5v2.5h0.5c0.3,0,0.4,0.1,0.5,0.3C16.9,18.8,16.9,19,16.8,19.1z"/>
	</g>
	<g class="st1">
		<path class="st0" d="M24.3,24.5c-0.3,0-0.5-0.1-0.7-0.3c-0.2-0.2-0.3-0.4-0.3-0.7v-7.1c0-0.3,0.1-0.5,0.3-0.7s0.4-0.3,0.7-0.3h6.2
			c0.3,0,0.5,0.1,0.7,0.3c0.2,0.2,0.3,0.4,0.3,0.7v7.1c0,0.3-0.1,0.5-0.3,0.7c-0.2,0.2-0.4,0.3-0.7,0.3H24.3z M30.3,20.6h-5.6v2.2
			c0,0.1,0,0.2,0.1,0.3s0.2,0.1,0.3,0.1h4.8c0.1,0,0.2,0,0.3-0.1s0.1-0.2,0.1-0.3V20.6z M25,16.7c-0.1,0-0.2,0-0.3,0.1
			c-0.1,0.1-0.1,0.2-0.1,0.3v2.3h5.6v-2.3c0-0.1,0-0.2-0.1-0.3s-0.2-0.1-0.3-0.1H25z"/>
	</g>
</g>
</svg>
