<?xml version="1.0" encoding="utf-8"?>
<!-- Generator: Adobe Illustrator 25.2.3, SVG Export Plug-In . SVG Version: 6.00 Build 0)  -->
<svg version="1.1" id="Layer_1" xmlns="http://www.w3.org/2000/svg" xmlns:xlink="http://www.w3.org/1999/xlink" x="0px" y="0px"
	 viewBox="0 0 40 40" style="enable-background:new 0 0 40 40;" xml:space="preserve">
<style type="text/css">
	.st0{fill:none;}
	.st1{fill:#FFFFFF;}
</style>
<g>
	<circle class="st0" cx="20" cy="20" r="20"/>
</g>
<line class="st0" x1="-10.5" y1="26" x2="-10.5" y2="33.3"/>
<path class="st1" d="M30.2,9.2l-0.2,0l-6.4,2.5l-7.2-2.5l-6.8,2.3c-0.3,0.1-0.4,0.3-0.4,0.6v18.1c0,0.3,0.3,0.6,0.6,0.6l0.2,0
	l6.4-2.5l7.2,2.5l6.8-2.3c0.3-0.1,0.4-0.3,0.4-0.6V9.8C30.8,9.5,30.5,9.2,30.2,9.2z M16.9,10.7l6.1,2.2v16.5l-6.1-2.2V10.7z
	 M10.5,12.4l5.3-1.7v16.6l-5.3,2V12.4z M29.7,27.6l-5.6,1.9V12.9l5.6-2.2V27.6z"/>
</svg>
