<?xml version="1.0" encoding="utf-8"?>
<!-- Generator: Adobe Illustrator 25.2.3, SVG Export Plug-In . SVG Version: 6.00 Build 0)  -->
<svg version="1.1" id="Layer_1" xmlns="http://www.w3.org/2000/svg" xmlns:xlink="http://www.w3.org/1999/xlink" x="0px" y="0px"
	 viewBox="0 0 40 40" style="enable-background:new 0 0 40 40;" xml:space="preserve">
<style type="text/css">
	.st0{fill:none;stroke:#FFFFFF;stroke-width:0.5;stroke-miterlimit:10;}
	.st1{fill:#FFFFFF;}
</style>
<g>
	<circle class="st0" cx="20" cy="15.6" r="8.4"/>
	<line class="st0" x1="11.6" y1="15.6" x2="28.4" y2="15.6"/>
	<path class="st0" d="M13.3,10.7l1.2,0.2c3.6,0.6,7.3,0.6,11,0l1.2-0.2"/>
	<path class="st0" d="M26.7,20.7l-1.2-0.2c-3.6-0.6-7.3-0.6-11,0l-1.2,0.2"/>
	<path class="st0" d="M27.2,20"/>
	<path class="st0" d="M12.8,20"/>
	<ellipse class="st0" cx="20" cy="15.6" rx="4.2" ry="8.4"/>
	<path class="st0" d="M13.9,18.8"/>
	<path class="st0" d="M25.7,18.9"/>
</g>
<g>
	<path class="st1" d="M12.1,32.7c0.4,0.2,1.1,0.4,1.7,0.4c1,0,1.6-0.5,1.6-1.1c0-0.6-0.4-1-1.4-1.3c-1.2-0.4-2-1-2-1.9
		c0-1,1-1.8,2.4-1.8c0.8,0,1.3,0.2,1.7,0.3l-0.3,0.7c-0.2-0.1-0.7-0.3-1.4-0.3c-1,0-1.4,0.5-1.4,1c0,0.6,0.5,0.9,1.5,1.3
		c1.3,0.4,1.9,1,1.9,2c0,1-0.9,1.9-2.6,1.9c-0.7,0-1.5-0.2-1.9-0.4L12.1,32.7z"/>
	<path class="st1" d="M18.8,27.5c0,0.3-0.2,0.5-0.6,0.5c-0.3,0-0.6-0.2-0.6-0.5c0-0.3,0.3-0.5,0.6-0.5C18.5,27,18.8,27.2,18.8,27.5z
		 M17.7,33.7v-4.8h1v4.8H17.7z"/>
	<path class="st1" d="M21.4,27.5v1.4h1.4v0.7h-1.4v2.6c0,0.6,0.2,0.9,0.7,0.9c0.3,0,0.4,0,0.6-0.1l0,0.7c-0.2,0.1-0.5,0.1-0.9,0.1
		c-0.5,0-0.8-0.1-1.1-0.4c-0.3-0.3-0.4-0.7-0.4-1.3v-2.6h-0.8v-0.7h0.8v-1.2L21.4,27.5z"/>
	<path class="st1" d="M24.4,31.5c0,1.2,0.9,1.7,1.8,1.7c0.7,0,1.1-0.1,1.5-0.2l0.2,0.6c-0.3,0.1-0.9,0.3-1.8,0.3
		c-1.7,0-2.6-1-2.6-2.4s1-2.6,2.5-2.6c1.8,0,2.2,1.4,2.2,2.3c0,0.2,0,0.3,0,0.4H24.4z M27.3,30.9c0-0.6-0.3-1.4-1.4-1.4
		c-1,0-1.4,0.8-1.5,1.4H27.3z"/>
</g>
</svg>
