<?xml version="1.0" encoding="utf-8"?>
<!-- Generator: Adobe Illustrator 25.2.3, SVG Export Plug-In . SVG Version: 6.00 Build 0)  -->
<svg version="1.1" id="Layer_1" xmlns="http://www.w3.org/2000/svg" xmlns:xlink="http://www.w3.org/1999/xlink" x="0px" y="0px"
	 viewBox="0 0 40 40" style="enable-background:new 0 0 40 40;" xml:space="preserve">
<style type="text/css">
	.st0{fill:none;}
	.st1{fill:#FFFFFF;}
	.st2{fill:none;stroke:#FFFFFF;stroke-miterlimit:10;}
</style>
<g>
	<circle class="st0" cx="20" cy="20" r="20"/>
</g>
<g>
	<path class="st1" d="M20,7.7c5.1,0,9.3,4.2,9.3,9.3c0,4-6.1,11.4-9.3,14.8C16.9,28.4,10.7,21,10.7,17C10.7,11.9,14.9,7.7,20,7.7
		 M20,6.7C14.3,6.7,9.7,11.3,9.7,17S20,33.3,20,33.3S30.3,22.7,30.3,17S25.7,6.7,20,6.7L20,6.7z"/>
</g>
<circle class="st2" cx="20" cy="17.6" r="2.7"/>
<line class="st0" x1="-10.5" y1="26" x2="-10.5" y2="33.3"/>
</svg>
